<?xml version="1.0" standalone="no"?>
<!DOCTYPE svg PUBLIC "-//W3C//DTD SVG 20010904//EN"
 "http://www.w3.org/TR/2001/REC-SVG-20010904/DTD/svg10.dtd">
<svg version="1.0" xmlns="http://www.w3.org/2000/svg"
 width="1164.000000pt" height="1280.000000pt" viewBox="0 0 1164.000000 1280.000000"
 preserveAspectRatio="xMidYMid meet">
<g transform="translate(0.000000,1280.000000) scale(0.100000,-0.100000)"
fill="#000000" stroke="none">
<path d="M1310 11686 c0 -1006 2 -1114 16 -1120 9 -3 134 -6 278 -6 l263 0 61
-55 c127 -115 251 -356 360 -697 148 -464 157 -796 32 -1276 -52 -199 -104
-353 -262 -777 -328 -878 -412 -1216 -425 -1712 -3 -123 -9 -223 -13 -223 -3
0 -32 38 -64 85 -107 157 -260 277 -409 320 -68 20 -212 22 -277 5 -92 -24
-175 -92 -207 -169 -9 -20 -26 -79 -39 -131 -91 -375 -256 -674 -525 -955
l-96 -100 22 -56 c93 -237 282 -424 510 -504 l60 -21 6 -179 c16 -460 175
-841 522 -1255 448 -534 1070 -936 2127 -1372 495 -204 1205 -529 1460 -669
405 -220 809 -490 1067 -711 56 -49 105 -88 108 -88 4 0 57 44 118 98 325 283
675 537 972 703 252 141 876 439 1255 599 107 45 267 113 355 150 944 401
1553 811 1966 1325 236 294 372 550 443 833 43 170 52 262 56 553 0 4 24 14
53 24 122 39 292 168 389 296 58 76 93 140 126 227 l19 50 -49 49 c-68 65
-221 257 -304 379 -122 179 -228 429 -275 647 -24 110 -56 168 -124 219 -73
55 -131 72 -250 71 -112 -1 -188 -23 -292 -84 -81 -47 -211 -180 -262 -266
-71 -119 -71 -119 -71 68 0 505 -93 897 -417 1764 -214 570 -285 804 -333
1080 -56 320 -27 632 92 1003 109 341 233 582 360 696 l61 56 276 2 276 3 3
1118 2 1117 -890 0 -890 0 -2 -337 -3 -338 -915 0 -915 0 -3 338 -2 337 -890
0 -890 0 -2 -337 -3 -338 -915 0 -915 0 -3 338 -2 337 -890 0 -890 0 0 -1114z"/>
</g>
</svg>
